<svg width="290" height="55" viewBox="0 0 290 55" fill="none" xmlns="http://www.w3.org/2000/svg">
<path d="M23.4113 38.5178H9.36454L0 10.4719H14.0468L23.4113 38.5178Z" fill="white"/>
<path d="M28.0936 10.4719C33.2655 10.4719 37.4582 14.6574 37.4582 19.8206C37.4582 22.2663 36.5172 24.4926 34.9772 26.1586C36.495 27.4447 37.4582 29.3632 37.4582 31.5063C37.4582 35.3787 34.3137 38.5178 30.4348 38.5178C29.5569 38.5178 28.7166 38.357 27.9418 38.0632L20.1807 14.8192C21.8412 12.2063 24.7645 10.4719 28.0936 10.4719Z" fill="white"/>
<path d="M52.7528 37.9707C52.252 37.9707 51.8349 37.8155 51.5008 37.5051C51.1667 37.1708 51 36.765 51 36.2874V11.6833C51 11.1819 51.1552 10.776 51.465 10.4656C51.7991 10.1552 52.2041 10 52.6812 10H61.302C62.828 10 64.1873 10.3104 65.3799 10.9312C66.5961 11.5519 67.5498 12.4115 68.2416 13.5098C68.9334 14.608 69.2789 15.8735 69.2789 17.306C69.2789 18.5237 68.9449 19.622 68.2774 20.6009C67.6335 21.5559 66.7628 22.2961 65.6661 22.8214C67.24 23.2273 68.5041 24.0033 69.4578 25.1493C70.4357 26.2953 70.9244 27.7757 70.9244 29.5902C70.9244 31.2377 70.5431 32.6941 69.7797 33.9595C69.0164 35.2011 67.9554 36.18 66.5961 36.8963C65.2605 37.6126 63.7223 37.9707 61.9817 37.9707H52.7528ZM54.3625 34.8191H61.9817C63.1027 34.8191 64.08 34.6161 64.9149 34.2102C65.7734 33.8043 66.4409 33.2194 66.9181 32.4553C67.4189 31.6674 67.6692 30.7124 67.6692 29.5902C67.6692 28.5397 67.4189 27.6563 66.9181 26.94C66.4409 26.2237 65.7734 25.6746 64.9149 25.2926C64.08 24.9106 63.1027 24.7195 61.9817 24.7195H54.3625V34.8191ZM54.3625 21.5679H61.302C62.685 21.5679 63.8181 21.2098 64.7003 20.4935C65.6067 19.7534 66.0596 18.6908 66.0596 17.306C66.0596 15.9213 65.6067 14.8827 64.7003 14.1902C63.8181 13.4978 62.685 13.1516 61.302 13.1516H54.3625V21.5679ZM77.6104 25.794C77.6583 24.3375 78.0275 23.0363 78.7193 21.8902C79.4347 20.7442 80.3769 19.8369 81.5452 19.1684C82.7135 18.4999 84.0012 18.1656 85.4084 18.1656C86.7198 18.1656 87.6978 18.3685 88.3417 18.7744C89.0092 19.1803 89.2596 19.6936 89.0928 20.3144C89.0213 20.6726 88.8782 20.9352 88.6636 21.1023C88.449 21.2456 88.1986 21.3292 87.9124 21.353C87.6262 21.353 87.3164 21.3292 86.9824 21.2814C85.5279 21.0427 84.228 21.0785 83.0833 21.3888C81.9387 21.6992 81.0322 22.2364 80.3647 23.0005C79.6972 23.7645 79.3632 24.6957 79.3632 25.794H77.6104ZM77.7177 37.9707C77.2169 37.9707 76.8234 37.8394 76.5372 37.5767C76.2511 37.2902 76.108 36.8843 76.108 36.3591V19.9921C76.108 19.4907 76.2511 19.0967 76.5372 18.8102C76.8234 18.5237 77.2169 18.3805 77.7177 18.3805C78.2664 18.3805 78.6714 18.5237 78.9339 18.8102C79.2201 19.0729 79.3632 19.4668 79.3632 19.9921V36.3591C79.3632 36.8605 79.2201 37.2544 78.9339 37.5409C78.6714 37.8274 78.2664 37.9707 77.7177 37.9707ZM100.739 38.114C98.7593 38.114 97.0065 37.6961 95.4805 36.8605C93.9781 36.0009 92.7977 34.831 91.9392 33.3507C91.0807 31.8465 90.6514 30.1274 90.6514 28.1935C90.6514 26.2357 91.0571 24.5166 91.8676 23.0363C92.6782 21.5321 93.7993 20.3622 95.2301 19.5265C96.6609 18.667 98.3185 18.2372 100.202 18.2372C102.039 18.2372 103.624 18.655 104.96 19.4907C106.295 20.3025 107.321 21.4366 108.036 22.893C108.752 24.3256 109.109 25.985 109.109 27.8712C109.109 28.2771 108.966 28.6233 108.68 28.9098C108.417 29.1724 108.06 29.3037 107.607 29.3037H92.905V26.6535H107.643L106.176 27.6921C106.152 26.4266 105.902 25.2926 105.425 24.2898C104.948 23.287 104.268 22.4991 103.386 21.926C102.504 21.353 101.442 21.0665 100.202 21.0665C98.843 21.0665 97.6625 21.3769 96.6609 21.9977C95.683 22.6185 94.9318 23.466 94.4074 24.5405C93.883 25.6149 93.6204 26.8326 93.6204 28.1935C93.6204 29.5544 93.9187 30.7721 94.5147 31.8465C95.1349 32.8971 95.9692 33.7327 97.0187 34.3535C98.0918 34.9743 99.3316 35.2847 100.739 35.2847C101.502 35.2847 102.289 35.1414 103.1 34.8549C103.935 34.5684 104.59 34.2341 105.067 33.8521C105.401 33.5894 105.759 33.4581 106.14 33.4581C106.522 33.4343 106.856 33.5417 107.142 33.7805C107.5 34.1148 107.691 34.4848 107.714 34.8907C107.738 35.2727 107.571 35.607 107.213 35.8935C106.403 36.5381 105.389 37.0753 104.173 37.5051C102.98 37.911 101.836 38.114 100.739 38.114ZM122.152 38.114C120.173 38.114 118.421 37.6961 116.894 36.8605C115.391 36.0009 114.211 34.831 113.353 33.3507C112.494 31.8465 112.065 30.1274 112.065 28.1935C112.065 26.2357 112.47 24.5166 113.281 23.0363C114.092 21.5321 115.213 20.3622 116.643 19.5265C118.074 18.667 119.732 18.2372 121.616 18.2372C123.452 18.2372 125.038 18.655 126.373 19.4907C127.709 20.3025 128.734 21.4366 129.449 22.893C130.165 24.3256 130.523 25.985 130.523 27.8712C130.523 28.2771 130.38 28.6233 130.093 28.9098C129.831 29.1724 129.474 29.3037 129.02 29.3037H114.318V26.6535H129.056L127.589 27.6921C127.566 26.4266 127.315 25.2926 126.838 24.2898C126.362 23.287 125.682 22.4991 124.799 21.926C123.917 21.353 122.856 21.0665 121.616 21.0665C120.256 21.0665 119.076 21.3769 118.074 21.9977C117.097 22.6185 116.346 23.466 115.821 24.5405C115.296 25.6149 115.034 26.8326 115.034 28.1935C115.034 29.5544 115.332 30.7721 115.928 31.8465C116.548 32.8971 117.383 33.7327 118.432 34.3535C119.505 34.9743 120.746 35.2847 122.152 35.2847C122.916 35.2847 123.702 35.1414 124.513 34.8549C125.348 34.5684 126.004 34.2341 126.48 33.8521C126.815 33.5894 127.172 33.4581 127.554 33.4581C127.936 33.4343 128.269 33.5417 128.555 33.7805C128.913 34.1148 129.104 34.4848 129.128 34.8907C129.152 35.2727 128.984 35.607 128.627 35.8935C127.816 36.5381 126.802 37.0753 125.586 37.5051C124.394 37.911 123.25 38.114 122.152 38.114ZM136.932 37.1828L134.571 35.3921L147.198 18.9893L149.38 20.9233L136.932 37.1828ZM135.787 37.9707C134.786 37.9707 134.285 37.4693 134.285 36.4665C134.285 35.4399 134.786 34.9265 135.787 34.9265H148.414C149.416 34.9265 149.917 35.4399 149.917 36.4665C149.917 37.4693 149.416 37.9707 148.414 37.9707H135.787ZM135.537 21.4247C134.511 21.4247 133.999 20.9113 133.999 19.8847C133.999 18.8819 134.511 18.3805 135.537 18.3805H148.128C149.154 18.3805 149.666 18.8819 149.666 19.8847C149.666 20.9113 149.154 21.4247 148.128 21.4247H135.537ZM162.989 38.114C161.009 38.114 159.256 37.6961 157.73 36.8605C156.228 36.0009 155.047 34.831 154.189 33.3507C153.33 31.8465 152.901 30.1274 152.901 28.1935C152.901 26.2357 153.307 24.5166 154.117 23.0363C154.928 21.5321 156.049 20.3622 157.48 19.5265C158.911 18.667 160.568 18.2372 162.452 18.2372C164.288 18.2372 165.874 18.655 167.21 19.4907C168.545 20.3025 169.57 21.4366 170.286 22.893C171.001 24.3256 171.359 25.985 171.359 27.8712C171.359 28.2771 171.216 28.6233 170.93 28.9098C170.667 29.1724 170.309 29.3037 169.857 29.3037H155.155V26.6535H169.892L168.426 27.6921C168.402 26.4266 168.152 25.2926 167.675 24.2898C167.197 23.287 166.518 22.4991 165.636 21.926C164.753 21.353 163.692 21.0665 162.452 21.0665C161.093 21.0665 159.912 21.3769 158.911 21.9977C157.933 22.6185 157.182 23.466 156.657 24.5405C156.133 25.6149 155.87 26.8326 155.87 28.1935C155.87 29.5544 156.168 30.7721 156.764 31.8465C157.385 32.8971 158.219 33.7327 159.268 34.3535C160.342 34.9743 161.581 35.2847 162.989 35.2847C163.752 35.2847 164.539 35.1414 165.349 34.8549C166.184 34.5684 166.84 34.2341 167.317 33.8521C167.651 33.5894 168.009 33.4581 168.39 33.4581C168.771 33.4343 169.105 33.5417 169.392 33.7805C169.749 34.1148 169.94 34.4848 169.964 34.8907C169.988 35.2727 169.821 35.607 169.463 35.8935C168.652 36.5381 167.639 37.0753 166.423 37.5051C165.23 37.911 164.085 38.114 162.989 38.114ZM180.486 37.9707C179.485 37.9707 178.59 37.6961 177.803 37.147C177.016 36.5978 176.397 35.8457 175.943 34.8907C175.514 33.9118 175.299 32.7896 175.299 31.5242V11.6116C175.299 11.1341 175.443 10.7521 175.729 10.4656C176.039 10.1552 176.433 10 176.909 10C177.41 10 177.803 10.1552 178.09 10.4656C178.4 10.7521 178.555 11.1341 178.555 11.6116V31.5242C178.555 32.4553 178.733 33.2194 179.091 33.8163C179.473 34.4132 179.938 34.7116 180.486 34.7116H181.381C181.834 34.7116 182.192 34.8668 182.454 35.1772C182.716 35.4637 182.847 35.8577 182.847 36.3591C182.847 36.8366 182.645 37.2306 182.239 37.5409C181.858 37.8274 181.357 37.9707 180.737 37.9707H180.486ZM189.929 46.5302C189.715 46.5302 189.464 46.4706 189.178 46.3512C188.224 45.9214 187.962 45.2409 188.391 44.3098L199.552 19.3116C199.981 18.4043 200.66 18.1417 201.59 18.5237C202.568 18.9296 202.842 19.6101 202.413 20.5651L191.217 45.5274C190.931 46.1959 190.502 46.5302 189.929 46.5302ZM194.079 37.2544C193.649 37.4454 193.256 37.4693 192.898 37.326C192.54 37.1828 192.254 36.9082 192.04 36.5023L183.92 20.5293C183.705 20.1234 183.669 19.7294 183.812 19.3474C183.979 18.9654 184.277 18.6908 184.707 18.5237C185.112 18.3327 185.494 18.3088 185.851 18.4521C186.233 18.5715 186.519 18.846 186.71 19.2758L194.544 35.213C194.782 35.6428 194.866 36.0487 194.794 36.4307C194.722 36.7888 194.484 37.0634 194.079 37.2544ZM206.777 38.5437C206.133 38.5437 205.584 38.3169 205.131 37.8633C204.678 37.4096 204.452 36.8605 204.452 36.2158C204.452 35.5712 204.678 35.022 205.131 34.5684C205.608 34.0908 206.156 33.8521 206.777 33.8521C207.421 33.8521 207.969 34.0908 208.422 34.5684C208.875 35.022 209.102 35.5712 209.102 36.2158C209.102 36.8366 208.875 37.3857 208.422 37.8633C207.969 38.3169 207.421 38.5437 206.777 38.5437ZM222.461 38.114C220.672 38.114 219.075 37.6842 217.668 36.8247C216.261 35.9651 215.152 34.7833 214.341 33.2791C213.53 31.7749 213.125 30.0797 213.125 28.1935C213.125 26.2834 213.554 24.5882 214.412 23.1079C215.295 21.6037 216.476 20.4219 217.954 19.5623C219.456 18.6789 221.137 18.2372 222.997 18.2372C224.882 18.2372 226.563 18.6789 228.041 19.5623C229.52 20.4219 230.688 21.6037 231.547 23.1079C232.429 24.6121 232.882 26.3073 232.906 28.1935L231.618 28.5158C231.618 30.3304 231.213 31.9659 230.402 33.4223C229.591 34.8787 228.495 36.0248 227.111 36.8605C225.752 37.6961 224.202 38.114 222.461 38.114ZM222.997 35.1772C224.285 35.1772 225.43 34.8787 226.431 34.2819C227.433 33.6611 228.22 32.8254 228.792 31.7749C229.389 30.7005 229.687 29.5066 229.687 28.1935C229.687 26.8564 229.389 25.6627 228.792 24.6121C228.22 23.5377 227.433 22.702 226.431 22.1051C225.43 21.4843 224.285 21.174 222.997 21.174C221.758 21.174 220.625 21.4843 219.599 22.1051C218.574 22.702 217.763 23.5377 217.167 24.6121C216.594 25.6627 216.308 26.8564 216.308 28.1935C216.308 29.5066 216.594 30.7005 217.167 31.7749C217.763 32.8254 218.574 33.6611 219.599 34.2819C220.625 34.8787 221.758 35.1772 222.997 35.1772ZM231.225 38.0065C230.748 38.0065 230.355 37.8513 230.044 37.5409C229.735 37.2306 229.579 36.8366 229.579 36.3591V30.6288L230.259 27.1907L232.906 28.1935V36.3591C232.906 36.8366 232.739 37.2306 232.405 37.5409C232.095 37.8513 231.702 38.0065 231.225 38.0065ZM240.41 37.9707C239.909 37.9707 239.504 37.8155 239.194 37.5051C238.884 37.1947 238.729 36.8008 238.729 36.3233V20.0279C238.729 19.5265 238.884 19.1326 239.194 18.846C239.504 18.5357 239.909 18.3805 240.41 18.3805C240.887 18.3805 241.281 18.5357 241.591 18.846C241.9 19.1326 242.056 19.5265 242.056 20.0279V36.3233C242.056 36.8008 241.9 37.1947 241.591 37.5051C241.281 37.8155 240.887 37.9707 240.41 37.9707ZM240.374 14.9781C239.779 14.9781 239.266 14.7633 238.836 14.3335C238.407 13.9037 238.192 13.3785 238.192 12.7577C238.192 12.1369 238.407 11.6236 238.836 11.2177C239.289 10.7879 239.814 10.573 240.41 10.573C240.983 10.573 241.483 10.7879 241.913 11.2177C242.365 11.6236 242.592 12.1369 242.592 12.7577C242.592 13.3785 242.378 13.9037 241.948 14.3335C241.519 14.7633 240.995 14.9781 240.374 14.9781Z" fill="white"/>
<path d="M248.019 8.47067C248.019 8.2352 248.21 8.04431 248.445 8.04431H250.148C250.383 8.04431 250.574 8.2352 250.574 8.47067C250.574 8.70614 250.383 8.89703 250.148 8.89703H249.722V11.0288C249.722 11.2643 249.531 11.4552 249.296 11.4552C249.061 11.4552 248.871 11.2643 248.871 11.0288V8.89703H248.445C248.21 8.89703 248.019 8.70614 248.019 8.47067Z" fill="white"/>
<path d="M251.753 8.19775C251.638 8.05984 251.449 8.00869 251.281 8.0698C251.112 8.1309 251 8.29118 251 8.47069V11.0288C251 11.2643 251.19 11.4552 251.426 11.4552C251.661 11.4552 251.851 11.2643 251.851 11.0288V9.64829L252.163 10.0227C252.244 10.1199 252.364 10.1761 252.49 10.1761C252.616 10.1761 252.737 10.1199 252.817 10.0227L253.129 9.64833V11.0288C253.129 11.2643 253.32 11.4552 253.555 11.4552C253.79 11.4552 253.981 11.2643 253.981 11.0288V8.47069C253.981 8.29118 253.868 8.1309 253.7 8.0698C253.531 8.00869 253.343 8.05984 253.228 8.19775L252.49 9.08379L251.753 8.19775Z" fill="white"/>
</svg>
