<svg width="454" height="86" viewBox="0 0 454 86" fill="none" xmlns="http://www.w3.org/2000/svg">
<path d="M71.875 86H28.75L0 0H43.125L71.875 86Z" fill="#151515"/>
<path d="M86.25 0C102.128 0 115 12.8345 115 28.6667C115 36.1664 112.111 42.993 107.383 48.1018C112.043 52.0455 115 57.9283 115 64.5C115 76.3741 105.346 86 93.4375 86C90.7422 86 88.1624 85.5068 85.7839 84.6061L61.9564 13.3304C67.0545 5.31817 76.0292 0 86.25 0Z" fill="#151515"/>
<path d="M135.641 49C134.857 49 134.204 48.7573 133.681 48.272C133.158 47.7493 132.897 47.1147 132.897 46.368V7.896C132.897 7.112 133.14 6.47733 133.625 5.992C134.148 5.50667 134.782 5.264 135.529 5.264H149.025C151.414 5.264 153.542 5.74933 155.409 6.72C157.313 7.69066 158.806 9.03466 159.889 10.752C160.972 12.4693 161.513 14.448 161.513 16.688C161.513 18.592 160.99 20.3093 159.945 21.84C158.937 23.3333 157.574 24.4907 155.857 25.312C158.321 25.9467 160.3 27.16 161.793 28.952C163.324 30.744 164.089 33.0587 164.089 35.896C164.089 38.472 163.492 40.7493 162.297 42.728C161.102 44.6693 159.441 46.2 157.313 47.32C155.222 48.44 152.814 49 150.089 49H135.641ZM138.161 44.072H150.089C151.844 44.072 153.374 43.7547 154.681 43.12C156.025 42.4853 157.07 41.5707 157.817 40.376C158.601 39.144 158.993 37.6507 158.993 35.896C158.993 34.2533 158.601 32.872 157.817 31.752C157.07 30.632 156.025 29.7733 154.681 29.176C153.374 28.5787 151.844 28.28 150.089 28.28H138.161V44.072ZM138.161 23.352H149.025C151.19 23.352 152.964 22.792 154.345 21.672C155.764 20.5147 156.473 18.8533 156.473 16.688C156.473 14.5227 155.764 12.8987 154.345 11.816C152.964 10.7333 151.19 10.192 149.025 10.192H138.161V23.352ZM174.556 29.96C174.631 27.6827 175.209 25.648 176.292 23.856C177.412 22.064 178.887 20.6453 180.716 19.6C182.545 18.5547 184.561 18.032 186.764 18.032C188.817 18.032 190.348 18.3493 191.356 18.984C192.401 19.6187 192.793 20.4213 192.532 21.392C192.42 21.952 192.196 22.3627 191.86 22.624C191.524 22.848 191.132 22.9787 190.684 23.016C190.236 23.016 189.751 22.9787 189.228 22.904C186.951 22.5307 184.916 22.5867 183.124 23.072C181.332 23.5573 179.913 24.3973 178.868 25.592C177.823 26.7867 177.3 28.2427 177.3 29.96H174.556ZM174.724 49C173.94 49 173.324 48.7947 172.876 48.384C172.428 47.936 172.204 47.3013 172.204 46.48V20.888C172.204 20.104 172.428 19.488 172.876 19.04C173.324 18.592 173.94 18.368 174.724 18.368C175.583 18.368 176.217 18.592 176.628 19.04C177.076 19.4507 177.3 20.0667 177.3 20.888V46.48C177.3 47.264 177.076 47.88 176.628 48.328C176.217 48.776 175.583 49 174.724 49ZM210.764 49.224C207.665 49.224 204.921 48.5707 202.532 47.264C200.18 45.92 198.332 44.0907 196.988 41.776C195.644 39.424 194.972 36.736 194.972 33.712C194.972 30.6507 195.607 27.9627 196.876 25.648C198.145 23.296 199.9 21.4667 202.14 20.16C204.38 18.816 206.975 18.144 209.924 18.144C212.799 18.144 215.281 18.7973 217.372 20.104C219.463 21.3733 221.068 23.1467 222.188 25.424C223.308 27.664 223.868 30.2587 223.868 33.208C223.868 33.8427 223.644 34.384 223.196 34.832C222.785 35.2427 222.225 35.448 221.516 35.448H198.5V31.304H221.572L219.276 32.928C219.239 30.9493 218.847 29.176 218.1 27.608C217.353 26.04 216.289 24.808 214.908 23.912C213.527 23.016 211.865 22.568 209.924 22.568C207.796 22.568 205.948 23.0533 204.38 24.024C202.849 24.9947 201.673 26.32 200.852 28C200.031 29.68 199.62 31.584 199.62 33.712C199.62 35.84 200.087 37.744 201.02 39.424C201.991 41.0667 203.297 42.3733 204.94 43.344C206.62 44.3147 208.561 44.8 210.764 44.8C211.959 44.8 213.191 44.576 214.46 44.128C215.767 43.68 216.793 43.1573 217.54 42.56C218.063 42.1493 218.623 41.944 219.22 41.944C219.817 41.9067 220.34 42.0747 220.788 42.448C221.348 42.9707 221.647 43.5493 221.684 44.184C221.721 44.7813 221.46 45.304 220.9 45.752C219.631 46.76 218.044 47.6 216.14 48.272C214.273 48.9067 212.481 49.224 210.764 49.224ZM244.287 49.224C241.189 49.224 238.445 48.5707 236.055 47.264C233.703 45.92 231.855 44.0907 230.511 41.776C229.167 39.424 228.495 36.736 228.495 33.712C228.495 30.6507 229.13 27.9627 230.399 25.648C231.669 23.296 233.423 21.4667 235.663 20.16C237.903 18.816 240.498 18.144 243.447 18.144C246.322 18.144 248.805 18.7973 250.895 20.104C252.986 21.3733 254.591 23.1467 255.711 25.424C256.831 27.664 257.391 30.2587 257.391 33.208C257.391 33.8427 257.167 34.384 256.719 34.832C256.309 35.2427 255.749 35.448 255.039 35.448H232.023V31.304H255.095L252.799 32.928C252.762 30.9493 252.37 29.176 251.623 27.608C250.877 26.04 249.813 24.808 248.431 23.912C247.05 23.016 245.389 22.568 243.447 22.568C241.319 22.568 239.471 23.0533 237.903 24.024C236.373 24.9947 235.197 26.32 234.375 28C233.554 29.68 233.143 31.584 233.143 33.712C233.143 35.84 233.61 37.744 234.543 39.424C235.514 41.0667 236.821 42.3733 238.463 43.344C240.143 44.3147 242.085 44.8 244.287 44.8C245.482 44.8 246.714 44.576 247.983 44.128C249.29 43.68 250.317 43.1573 251.063 42.56C251.586 42.1493 252.146 41.944 252.743 41.944C253.341 41.9067 253.863 42.0747 254.311 42.448C254.871 42.9707 255.17 43.5493 255.207 44.184C255.245 44.7813 254.983 45.304 254.423 45.752C253.154 46.76 251.567 47.6 249.663 48.272C247.797 48.9067 246.005 49.224 244.287 49.224ZM267.425 47.768L263.729 44.968L283.497 19.32L286.913 22.344L267.425 47.768ZM265.633 49C264.065 49 263.281 48.216 263.281 46.648C263.281 45.0427 264.065 44.24 265.633 44.24H285.401C286.969 44.24 287.753 45.0427 287.753 46.648C287.753 48.216 286.969 49 285.401 49H265.633ZM265.241 23.128C263.635 23.128 262.833 22.3253 262.833 20.72C262.833 19.152 263.635 18.368 265.241 18.368H284.953C286.558 18.368 287.361 19.152 287.361 20.72C287.361 22.3253 286.558 23.128 284.953 23.128H265.241ZM308.217 49.224C305.118 49.224 302.374 48.5707 299.985 47.264C297.633 45.92 295.785 44.0907 294.441 41.776C293.097 39.424 292.425 36.736 292.425 33.712C292.425 30.6507 293.06 27.9627 294.329 25.648C295.598 23.296 297.353 21.4667 299.593 20.16C301.833 18.816 304.428 18.144 307.377 18.144C310.252 18.144 312.734 18.7973 314.825 20.104C316.916 21.3733 318.521 23.1467 319.641 25.424C320.761 27.664 321.321 30.2587 321.321 33.208C321.321 33.8427 321.097 34.384 320.649 34.832C320.238 35.2427 319.678 35.448 318.969 35.448H295.953V31.304H319.025L316.729 32.928C316.692 30.9493 316.3 29.176 315.553 27.608C314.806 26.04 313.742 24.808 312.361 23.912C310.98 23.016 309.318 22.568 307.377 22.568C305.249 22.568 303.401 23.0533 301.833 24.024C300.302 24.9947 299.126 26.32 298.305 28C297.484 29.68 297.073 31.584 297.073 33.712C297.073 35.84 297.54 37.744 298.473 39.424C299.444 41.0667 300.75 42.3733 302.393 43.344C304.073 44.3147 306.014 44.8 308.217 44.8C309.412 44.8 310.644 44.576 311.913 44.128C313.22 43.68 314.246 43.1573 314.993 42.56C315.516 42.1493 316.076 41.944 316.673 41.944C317.27 41.9067 317.793 42.0747 318.241 42.448C318.801 42.9707 319.1 43.5493 319.137 44.184C319.174 44.7813 318.913 45.304 318.353 45.752C317.084 46.76 315.497 47.6 313.593 48.272C311.726 48.9067 309.934 49.224 308.217 49.224ZM335.61 49C334.042 49 332.642 48.5707 331.41 47.712C330.178 46.8533 329.208 45.6773 328.498 44.184C327.826 42.6533 327.49 40.8987 327.49 38.92V7.784C327.49 7.03733 327.714 6.44 328.162 5.992C328.648 5.50667 329.264 5.264 330.01 5.264C330.794 5.264 331.41 5.50667 331.858 5.992C332.344 6.44 332.586 7.03733 332.586 7.784V38.92C332.586 40.376 332.866 41.5707 333.426 42.504C334.024 43.4373 334.752 43.904 335.61 43.904H337.01C337.72 43.904 338.28 44.1467 338.69 44.632C339.101 45.08 339.306 45.696 339.306 46.48C339.306 47.2267 338.989 47.8427 338.354 48.328C337.757 48.776 336.973 49 336.002 49H335.61ZM350.393 62.384C350.057 62.384 349.665 62.2907 349.217 62.104C347.723 61.432 347.313 60.368 347.985 58.912L365.457 19.824C366.129 18.4053 367.193 17.9947 368.649 18.592C370.179 19.2267 370.609 20.2907 369.937 21.784L352.409 60.816C351.961 61.8613 351.289 62.384 350.393 62.384ZM356.889 47.88C356.217 48.1787 355.601 48.216 355.041 47.992C354.481 47.768 354.033 47.3387 353.697 46.704L340.985 21.728C340.649 21.0933 340.593 20.4773 340.817 19.88C341.078 19.2827 341.545 18.8533 342.217 18.592C342.851 18.2933 343.449 18.256 344.009 18.48C344.606 18.6667 345.054 19.096 345.353 19.768L357.617 44.688C357.99 45.36 358.121 45.9947 358.009 46.592C357.897 47.152 357.523 47.5813 356.889 47.88ZM376.768 49.896C375.76 49.896 374.901 49.5413 374.192 48.832C373.483 48.1227 373.128 47.264 373.128 46.256C373.128 45.248 373.483 44.3893 374.192 43.68C374.939 42.9333 375.797 42.56 376.768 42.56C377.776 42.56 378.635 42.9333 379.344 43.68C380.053 44.3893 380.408 45.248 380.408 46.256C380.408 47.2267 380.053 48.0853 379.344 48.832C378.635 49.5413 377.776 49.896 376.768 49.896ZM401.322 49.224C398.522 49.224 396.021 48.552 393.818 47.208C391.616 45.864 389.88 44.016 388.61 41.664C387.341 39.312 386.706 36.6613 386.706 33.712C386.706 30.7253 387.378 28.0747 388.722 25.76C390.104 23.408 391.952 21.56 394.266 20.216C396.618 18.8347 399.25 18.144 402.162 18.144C405.112 18.144 407.744 18.8347 410.058 20.216C412.373 21.56 414.202 23.408 415.546 25.76C416.928 28.112 417.637 30.7627 417.674 33.712L415.658 34.216C415.658 37.0533 415.024 39.6107 413.754 41.888C412.485 44.1653 410.768 45.9573 408.602 47.264C406.474 48.5707 404.048 49.224 401.322 49.224ZM402.162 44.632C404.178 44.632 405.97 44.1653 407.538 43.232C409.106 42.2613 410.338 40.9547 411.234 39.312C412.168 37.632 412.634 35.7653 412.634 33.712C412.634 31.6213 412.168 29.7547 411.234 28.112C410.338 26.432 409.106 25.1253 407.538 24.192C405.97 23.2213 404.178 22.736 402.162 22.736C400.221 22.736 398.448 23.2213 396.842 24.192C395.237 25.1253 393.968 26.432 393.034 28.112C392.138 29.7547 391.69 31.6213 391.69 33.712C391.69 35.7653 392.138 37.632 393.034 39.312C393.968 40.9547 395.237 42.2613 396.842 43.232C398.448 44.1653 400.221 44.632 402.162 44.632ZM415.042 49.056C414.296 49.056 413.68 48.8133 413.194 48.328C412.709 47.8427 412.466 47.2267 412.466 46.48V37.52L413.53 32.144L417.674 33.712V46.48C417.674 47.2267 417.413 47.8427 416.89 48.328C416.405 48.8133 415.789 49.056 415.042 49.056ZM429.422 49C428.638 49 428.003 48.7573 427.518 48.272C427.033 47.7867 426.79 47.1707 426.79 46.424V20.944C426.79 20.16 427.033 19.544 427.518 19.096C428.003 18.6107 428.638 18.368 429.422 18.368C430.169 18.368 430.785 18.6107 431.27 19.096C431.755 19.544 431.998 20.16 431.998 20.944V46.424C431.998 47.1707 431.755 47.7867 431.27 48.272C430.785 48.7573 430.169 49 429.422 49ZM429.366 13.048C428.433 13.048 427.63 12.712 426.958 12.04C426.286 11.368 425.95 10.5467 425.95 9.576C425.95 8.60533 426.286 7.80267 426.958 7.168C427.667 6.496 428.489 6.16 429.422 6.16C430.318 6.16 431.102 6.496 431.774 7.168C432.483 7.80267 432.838 8.60533 432.838 9.576C432.838 10.5467 432.502 11.368 431.83 12.04C431.158 12.712 430.337 13.048 429.366 13.048Z" fill="#151515"/>
<path d="M144.52 69.3H139.88V82H137.95V69.3H133.3V67.67H144.52V69.3ZM147.841 73.22C148.274 72.76 148.754 72.3933 149.281 72.12C149.807 71.8467 150.414 71.71 151.101 71.71C151.654 71.71 152.141 71.8033 152.561 71.99C152.987 72.17 153.341 72.43 153.621 72.77C153.907 73.1033 154.124 73.5067 154.271 73.98C154.417 74.4533 154.491 74.9767 154.491 75.55V82H152.701V75.55C152.701 74.7833 152.524 74.19 152.171 73.77C151.824 73.3433 151.294 73.13 150.581 73.13C150.054 73.13 149.561 73.2567 149.101 73.51C148.647 73.7633 148.227 74.1067 147.841 74.54V82H146.051V67.27H147.841V73.22ZM159.083 71.87V82H157.303V71.87H159.083ZM159.463 68.69C159.463 68.8633 159.426 69.0267 159.353 69.18C159.286 69.3267 159.193 69.46 159.073 69.58C158.96 69.6933 158.823 69.7833 158.663 69.85C158.51 69.9167 158.346 69.95 158.173 69.95C158 69.95 157.836 69.9167 157.683 69.85C157.536 69.7833 157.406 69.6933 157.293 69.58C157.18 69.46 157.09 69.3267 157.023 69.18C156.956 69.0267 156.923 68.8633 156.923 68.69C156.923 68.5167 156.956 68.3533 157.023 68.2C157.09 68.04 157.18 67.9033 157.293 67.79C157.406 67.67 157.536 67.5767 157.683 67.51C157.836 67.4433 158 67.41 158.173 67.41C158.346 67.41 158.51 67.4433 158.663 67.51C158.823 67.5767 158.96 67.67 159.073 67.79C159.193 67.9033 159.286 68.04 159.353 68.2C159.426 68.3533 159.463 68.5167 159.463 68.69ZM163.688 73.34C163.908 73.0933 164.141 72.87 164.388 72.67C164.634 72.47 164.894 72.3 165.168 72.16C165.448 72.0133 165.741 71.9033 166.048 71.83C166.361 71.75 166.698 71.71 167.058 71.71C167.611 71.71 168.098 71.8033 168.518 71.99C168.944 72.17 169.298 72.43 169.578 72.77C169.864 73.1033 170.081 73.5067 170.228 73.98C170.374 74.4533 170.448 74.9767 170.448 75.55V82H168.658V75.55C168.658 74.7833 168.481 74.19 168.128 73.77C167.781 73.3433 167.251 73.13 166.538 73.13C166.011 73.13 165.518 73.2567 165.058 73.51C164.604 73.7633 164.184 74.1067 163.798 74.54V82H162.008V71.87H163.078C163.331 71.87 163.488 71.9933 163.548 72.24L163.688 73.34ZM174.95 67.27V75.94H175.41C175.543 75.94 175.653 75.9233 175.74 75.89C175.833 75.85 175.93 75.7733 176.03 75.66L179.23 72.23C179.323 72.1167 179.42 72.03 179.52 71.97C179.627 71.9033 179.767 71.87 179.94 71.87H181.55L177.82 75.84C177.64 76.0667 177.447 76.2433 177.24 76.37C177.36 76.45 177.467 76.5433 177.56 76.65C177.66 76.75 177.753 76.8667 177.84 77L181.8 82H180.21C180.057 82 179.923 81.9767 179.81 81.93C179.703 81.8767 179.61 81.7833 179.53 81.65L176.2 77.5C176.1 77.36 176 77.27 175.9 77.23C175.807 77.1833 175.66 77.16 175.46 77.16H174.95V82H173.16V67.27H174.95ZM190.313 71.87V82H188.533V71.87H190.313ZM190.693 68.69C190.693 68.8633 190.657 69.0267 190.583 69.18C190.517 69.3267 190.423 69.46 190.303 69.58C190.19 69.6933 190.053 69.7833 189.893 69.85C189.74 69.9167 189.577 69.95 189.403 69.95C189.23 69.95 189.067 69.9167 188.913 69.85C188.767 69.7833 188.637 69.6933 188.523 69.58C188.41 69.46 188.32 69.3267 188.253 69.18C188.187 69.0267 188.153 68.8633 188.153 68.69C188.153 68.5167 188.187 68.3533 188.253 68.2C188.32 68.04 188.41 67.9033 188.523 67.79C188.637 67.67 188.767 67.5767 188.913 67.51C189.067 67.4433 189.23 67.41 189.403 67.41C189.577 67.41 189.74 67.4433 189.893 67.51C190.053 67.5767 190.19 67.67 190.303 67.79C190.423 67.9033 190.517 68.04 190.583 68.2C190.657 68.3533 190.693 68.5167 190.693 68.69ZM196.348 82.16C195.548 82.16 194.931 81.9367 194.498 81.49C194.071 81.0433 193.858 80.4 193.858 79.56V73.36H192.638C192.531 73.36 192.441 73.33 192.368 73.27C192.295 73.2033 192.258 73.1033 192.258 72.97V72.26L193.918 72.05L194.328 68.92C194.348 68.82 194.391 68.74 194.458 68.68C194.531 68.6133 194.625 68.58 194.738 68.58H195.638V72.07H198.568V73.36H195.638V79.44C195.638 79.8667 195.741 80.1833 195.948 80.39C196.155 80.5967 196.421 80.7 196.748 80.7C196.935 80.7 197.095 80.6767 197.228 80.63C197.368 80.5767 197.488 80.52 197.588 80.46C197.688 80.4 197.771 80.3467 197.838 80.3C197.911 80.2467 197.975 80.22 198.028 80.22C198.121 80.22 198.205 80.2767 198.278 80.39L198.798 81.24C198.491 81.5267 198.121 81.7533 197.688 81.92C197.255 82.08 196.808 82.16 196.348 82.16ZM200.106 80.9C200.106 80.7267 200.136 80.5633 200.196 80.41C200.263 80.2567 200.349 80.1233 200.456 80.01C200.569 79.8967 200.703 79.8067 200.856 79.74C201.009 79.6733 201.173 79.64 201.346 79.64C201.519 79.64 201.683 79.6733 201.836 79.74C201.989 79.8067 202.123 79.8967 202.236 80.01C202.349 80.1233 202.439 80.2567 202.506 80.41C202.573 80.5633 202.606 80.7267 202.606 80.9C202.606 81.08 202.573 81.2467 202.506 81.4C202.439 81.5467 202.349 81.6767 202.236 81.79C202.123 81.9033 201.989 81.99 201.836 82.05C201.683 82.1167 201.519 82.15 201.346 82.15C201.173 82.15 201.009 82.1167 200.856 82.05C200.703 81.99 200.569 81.9033 200.456 81.79C200.349 81.6767 200.263 81.5467 200.196 81.4C200.136 81.2467 200.106 81.08 200.106 80.9ZM215.7 80.46C216.253 80.46 216.73 80.3967 217.13 80.27C217.53 80.1433 217.857 79.9667 218.11 79.74C218.37 79.5067 218.56 79.2333 218.68 78.92C218.8 78.6 218.86 78.25 218.86 77.87C218.86 77.13 218.597 76.5467 218.07 76.12C217.543 75.6867 216.753 75.47 215.7 75.47H212.6V80.46H215.7ZM212.6 69.2V74.09H215.16C215.707 74.09 216.18 74.03 216.58 73.91C216.987 73.79 217.32 73.6233 217.58 73.41C217.847 73.1967 218.043 72.94 218.17 72.64C218.297 72.3333 218.36 72 218.36 71.64C218.36 70.7933 218.107 70.1767 217.6 69.79C217.093 69.3967 216.307 69.2 215.24 69.2H212.6ZM215.24 67.67C216.12 67.67 216.877 67.7567 217.51 67.93C218.15 68.1033 218.673 68.35 219.08 68.67C219.493 68.99 219.797 69.3833 219.99 69.85C220.183 70.31 220.28 70.83 220.28 71.41C220.28 71.7633 220.223 72.1033 220.11 72.43C220.003 72.75 219.84 73.05 219.62 73.33C219.4 73.61 219.12 73.8633 218.78 74.09C218.447 74.31 218.053 74.49 217.6 74.63C218.653 74.83 219.443 75.2067 219.97 75.76C220.503 76.3067 220.77 77.0267 220.77 77.92C220.77 78.5267 220.657 79.08 220.43 79.58C220.21 80.08 219.883 80.51 219.45 80.87C219.023 81.23 218.497 81.51 217.87 81.71C217.243 81.9033 216.53 82 215.73 82H210.67V67.67H215.24ZM224.655 73.9C224.975 73.2067 225.368 72.6667 225.835 72.28C226.301 71.8867 226.871 71.69 227.545 71.69C227.758 71.69 227.961 71.7133 228.155 71.76C228.355 71.8067 228.531 71.88 228.685 71.98L228.555 73.31C228.515 73.4767 228.415 73.56 228.255 73.56C228.161 73.56 228.025 73.54 227.845 73.5C227.665 73.46 227.461 73.44 227.235 73.44C226.915 73.44 226.628 73.4867 226.375 73.58C226.128 73.6733 225.905 73.8133 225.705 74C225.511 74.18 225.335 74.4067 225.175 74.68C225.021 74.9467 224.881 75.2533 224.755 75.6V82H222.965V71.87H223.985C224.178 71.87 224.311 71.9067 224.385 71.98C224.458 72.0533 224.508 72.18 224.535 72.36L224.655 73.9ZM236.62 75.83C236.62 75.4167 236.56 75.04 236.44 74.7C236.326 74.3533 236.156 74.0567 235.93 73.81C235.71 73.5567 235.44 73.3633 235.12 73.23C234.8 73.09 234.436 73.02 234.03 73.02C233.176 73.02 232.5 73.27 232 73.77C231.506 74.2633 231.2 74.95 231.08 75.83H236.62ZM238.06 80.58C237.84 80.8467 237.576 81.08 237.27 81.28C236.963 81.4733 236.633 81.6333 236.28 81.76C235.933 81.8867 235.573 81.98 235.2 82.04C234.826 82.1067 234.456 82.14 234.09 82.14C233.39 82.14 232.743 82.0233 232.15 81.79C231.563 81.55 231.053 81.2033 230.62 80.75C230.193 80.29 229.86 79.7233 229.62 79.05C229.38 78.3767 229.26 77.6033 229.26 76.73C229.26 76.0233 229.366 75.3633 229.58 74.75C229.8 74.1367 230.113 73.6067 230.52 73.16C230.926 72.7067 231.423 72.3533 232.01 72.1C232.596 71.84 233.256 71.71 233.99 71.71C234.596 71.71 235.156 71.8133 235.67 72.02C236.19 72.22 236.636 72.5133 237.01 72.9C237.39 73.28 237.686 73.7533 237.9 74.32C238.113 74.88 238.22 75.52 238.22 76.24C238.22 76.52 238.19 76.7067 238.13 76.8C238.07 76.8933 237.956 76.94 237.79 76.94H231.02C231.04 77.58 231.126 78.1367 231.28 78.61C231.44 79.0833 231.66 79.48 231.94 79.8C232.22 80.1133 232.553 80.35 232.94 80.51C233.326 80.6633 233.76 80.74 234.24 80.74C234.686 80.74 235.07 80.69 235.39 80.59C235.716 80.4833 235.996 80.37 236.23 80.25C236.463 80.13 236.656 80.02 236.81 79.92C236.97 79.8133 237.106 79.76 237.22 79.76C237.366 79.76 237.48 79.8167 237.56 79.93L238.06 80.58ZM247.186 75.83C247.186 75.4167 247.126 75.04 247.006 74.7C246.893 74.3533 246.723 74.0567 246.496 73.81C246.276 73.5567 246.006 73.3633 245.686 73.23C245.366 73.09 245.003 73.02 244.596 73.02C243.743 73.02 243.066 73.27 242.566 73.77C242.073 74.2633 241.766 74.95 241.646 75.83H247.186ZM248.626 80.58C248.406 80.8467 248.143 81.08 247.836 81.28C247.529 81.4733 247.199 81.6333 246.846 81.76C246.499 81.8867 246.139 81.98 245.766 82.04C245.393 82.1067 245.023 82.14 244.656 82.14C243.956 82.14 243.309 82.0233 242.716 81.79C242.129 81.55 241.619 81.2033 241.186 80.75C240.759 80.29 240.426 79.7233 240.186 79.05C239.946 78.3767 239.826 77.6033 239.826 76.73C239.826 76.0233 239.933 75.3633 240.146 74.75C240.366 74.1367 240.679 73.6067 241.086 73.16C241.493 72.7067 241.989 72.3533 242.576 72.1C243.163 71.84 243.823 71.71 244.556 71.71C245.163 71.71 245.723 71.8133 246.236 72.02C246.756 72.22 247.203 72.5133 247.576 72.9C247.956 73.28 248.253 73.7533 248.466 74.32C248.679 74.88 248.786 75.52 248.786 76.24C248.786 76.52 248.756 76.7067 248.696 76.8C248.636 76.8933 248.523 76.94 248.356 76.94H241.586C241.606 77.58 241.693 78.1367 241.846 78.61C242.006 79.0833 242.226 79.48 242.506 79.8C242.786 80.1133 243.119 80.35 243.506 80.51C243.893 80.6633 244.326 80.74 244.806 80.74C245.253 80.74 245.636 80.69 245.956 80.59C246.283 80.4833 246.563 80.37 246.796 80.25C247.029 80.13 247.223 80.02 247.376 79.92C247.536 79.8133 247.673 79.76 247.786 79.76C247.933 79.76 248.046 79.8167 248.126 79.93L248.626 80.58ZM257.963 72.63C257.963 72.7567 257.939 72.88 257.893 73C257.853 73.12 257.796 73.2233 257.723 73.31L252.233 80.61H257.773V82H250.143V81.26C250.143 81.1733 250.163 81.0733 250.203 80.96C250.243 80.84 250.303 80.7267 250.383 80.62L255.903 73.27H250.453V71.87H257.963V72.63ZM266.6 75.83C266.6 75.4167 266.54 75.04 266.42 74.7C266.307 74.3533 266.137 74.0567 265.91 73.81C265.69 73.5567 265.42 73.3633 265.1 73.23C264.78 73.09 264.417 73.02 264.01 73.02C263.157 73.02 262.48 73.27 261.98 73.77C261.487 74.2633 261.18 74.95 261.06 75.83H266.6ZM268.04 80.58C267.82 80.8467 267.557 81.08 267.25 81.28C266.943 81.4733 266.613 81.6333 266.26 81.76C265.913 81.8867 265.553 81.98 265.18 82.04C264.807 82.1067 264.437 82.14 264.07 82.14C263.37 82.14 262.723 82.0233 262.13 81.79C261.543 81.55 261.033 81.2033 260.6 80.75C260.173 80.29 259.84 79.7233 259.6 79.05C259.36 78.3767 259.24 77.6033 259.24 76.73C259.24 76.0233 259.347 75.3633 259.56 74.75C259.78 74.1367 260.093 73.6067 260.5 73.16C260.907 72.7067 261.403 72.3533 261.99 72.1C262.577 71.84 263.237 71.71 263.97 71.71C264.577 71.71 265.137 71.8133 265.65 72.02C266.17 72.22 266.617 72.5133 266.99 72.9C267.37 73.28 267.667 73.7533 267.88 74.32C268.093 74.88 268.2 75.52 268.2 76.24C268.2 76.52 268.17 76.7067 268.11 76.8C268.05 76.8933 267.937 76.94 267.77 76.94H261C261.02 77.58 261.107 78.1367 261.26 78.61C261.42 79.0833 261.64 79.48 261.92 79.8C262.2 80.1133 262.533 80.35 262.92 80.51C263.307 80.6633 263.74 80.74 264.22 80.74C264.667 80.74 265.05 80.69 265.37 80.59C265.697 80.4833 265.977 80.37 266.21 80.25C266.443 80.13 266.637 80.02 266.79 79.92C266.95 79.8133 267.087 79.76 267.2 79.76C267.347 79.76 267.46 79.8167 267.54 79.93L268.04 80.58ZM277.384 71.87V82H275.604V71.87H277.384ZM277.764 68.69C277.764 68.8633 277.727 69.0267 277.654 69.18C277.587 69.3267 277.494 69.46 277.374 69.58C277.26 69.6933 277.124 69.7833 276.964 69.85C276.81 69.9167 276.647 69.95 276.474 69.95C276.3 69.95 276.137 69.9167 275.984 69.85C275.837 69.7833 275.707 69.6933 275.594 69.58C275.48 69.46 275.39 69.3267 275.324 69.18C275.257 69.0267 275.224 68.8633 275.224 68.69C275.224 68.5167 275.257 68.3533 275.324 68.2C275.39 68.04 275.48 67.9033 275.594 67.79C275.707 67.67 275.837 67.5767 275.984 67.51C276.137 67.4433 276.3 67.41 276.474 67.41C276.647 67.41 276.81 67.4433 276.964 67.51C277.124 67.5767 277.26 67.67 277.374 67.79C277.494 67.9033 277.587 68.04 277.654 68.2C277.727 68.3533 277.764 68.5167 277.764 68.69ZM283.418 82.16C282.618 82.16 282.002 81.9367 281.568 81.49C281.142 81.0433 280.928 80.4 280.928 79.56V73.36H279.708C279.602 73.36 279.512 73.33 279.438 73.27C279.365 73.2033 279.328 73.1033 279.328 72.97V72.26L280.988 72.05L281.398 68.92C281.418 68.82 281.462 68.74 281.528 68.68C281.602 68.6133 281.695 68.58 281.808 68.58H282.708V72.07H285.638V73.36H282.708V79.44C282.708 79.8667 282.812 80.1833 283.018 80.39C283.225 80.5967 283.492 80.7 283.818 80.7C284.005 80.7 284.165 80.6767 284.298 80.63C284.438 80.5767 284.558 80.52 284.658 80.46C284.758 80.4 284.842 80.3467 284.908 80.3C284.982 80.2467 285.045 80.22 285.098 80.22C285.192 80.22 285.275 80.2767 285.348 80.39L285.868 81.24C285.562 81.5267 285.192 81.7533 284.758 81.92C284.325 82.08 283.878 82.16 283.418 82.16ZM287.176 80.9C287.176 80.7267 287.206 80.5633 287.266 80.41C287.333 80.2567 287.42 80.1233 287.526 80.01C287.64 79.8967 287.773 79.8067 287.926 79.74C288.08 79.6733 288.243 79.64 288.416 79.64C288.59 79.64 288.753 79.6733 288.906 79.74C289.06 79.8067 289.193 79.8967 289.306 80.01C289.42 80.1233 289.51 80.2567 289.576 80.41C289.643 80.5633 289.676 80.7267 289.676 80.9C289.676 81.08 289.643 81.2467 289.576 81.4C289.51 81.5467 289.42 81.6767 289.306 81.79C289.193 81.9033 289.06 81.99 288.906 82.05C288.753 82.1167 288.59 82.15 288.416 82.15C288.243 82.15 288.08 82.1167 287.926 82.05C287.773 81.99 287.64 81.9033 287.526 81.79C287.42 81.6767 287.333 81.5467 287.266 81.4C287.206 81.2467 287.176 81.08 287.176 80.9Z" fill="#151515"/>
<path d="M441.333 6.00004C441.333 5.63185 441.632 5.33337 442 5.33337H444.667C445.035 5.33337 445.333 5.63185 445.333 6.00004C445.333 6.36823 445.035 6.66671 444.667 6.66671H444V10C444 10.3682 443.701 10.6667 443.333 10.6667C442.965 10.6667 442.667 10.3682 442.667 10V6.66671H442C441.632 6.66671 441.333 6.36823 441.333 6.00004Z" fill="#0F0F0F"/>
<path d="M447.179 5.57317C446.999 5.35754 446.704 5.27755 446.44 5.37311C446.176 5.46865 446 5.71927 446 5.99995V9.99995C446 10.3682 446.298 10.6666 446.667 10.6666C447.035 10.6666 447.333 10.3682 447.333 9.99995V7.84129L447.821 8.42675C447.948 8.57875 448.135 8.66662 448.333 8.66662C448.531 8.66662 448.719 8.57875 448.845 8.42675L449.333 7.84135V9.99995C449.333 10.3682 449.632 10.6666 450 10.6666C450.368 10.6666 450.667 10.3682 450.667 9.99995V5.99995C450.667 5.71927 450.491 5.46865 450.227 5.37311C449.963 5.27755 449.668 5.35754 449.488 5.57317L448.333 6.95862L447.179 5.57317Z" fill="#0F0F0F"/>
</svg>
